<?xml version="1.0" encoding="UTF-8"?>
<svg xmlns="http://www.w3.org/2000/svg"
     width="1254"
     height="1254"
     viewBox="0 0 1254 1254"
     role="img"
     aria-labelledby="title desc">
  <title id="title">Asta Tengen AT Monogram</title>
  <desc id="desc">Logo monogram geometris AT berwarna oranye dengan latar transparan.</desc>

  <defs>
    <linearGradient id="orangeGradient" x1="0" y1="0" x2="0" y2="1">
      <stop offset="0%" stop-color="#FF6800"/>
      <stop offset="48%" stop-color="#FF5900"/>
      <stop offset="100%" stop-color="#FF4D00"/>
    </linearGradient>
  </defs>

  <path
    d="M 677 405 L 664 396 L 656 392 L 636 385 L 623 384 L 622 383 L 590 384 L 566 391 L 549 399 L 537 407 L 519 423 L 508 437 L 504 445 L 486 472 L 482 480 L 456 520 L 425 571 L 412 590 L 408 598 L 375 649 L 344 700 L 279 801 L 270 817 L 244 857 L 245 861 L 247 862 L 320 862 L 321 861 L 330 860 L 342 856 L 356 849 L 367 841 L 378 830 L 410 781 L 461 699 L 464 696 L 472 682 L 496 646 L 502 635 L 505 632 L 513 618 L 546 568 L 552 557 L 555 554 L 575 521 L 588 502 L 601 490 L 616 482 L 632 478 L 726 478 L 727 477 L 696 426 L 689 417 Z
        M 1007 490 L 665 490 L 664 491 L 655 492 L 641 498 L 635 502 L 627 510 L 582 579 L 582 581 L 675 581 L 686 585 L 700 599 L 703 605 L 705 613 L 705 630 L 706 631 L 705 635 L 705 654 L 706 655 L 706 682 L 705 683 L 705 691 L 706 692 L 706 708 L 705 709 L 706 712 L 705 714 L 705 721 L 706 722 L 706 730 L 705 731 L 705 737 L 706 738 L 706 748 L 705 749 L 706 780 L 705 781 L 705 785 L 706 786 L 708 801 L 715 818 L 724 831 L 734 840 L 744 847 L 756 853 L 770 858 L 782 861 L 787 861 L 788 862 L 797 862 L 798 861 L 798 618 L 799 617 L 800 606 L 807 593 L 817 585 L 827 581 L 936 581 L 937 580 L 948 579 L 956 576 L 961 573 L 972 562 L 978 550 L 1009 498 L 1009 492 Z
        M 489 737 L 490 738 L 671 738 L 672 737 L 672 636 L 671 635 L 559 635 L 554 637 Z"
    fill="url(#orangeGradient)"
    fill-rule="evenodd"
    shape-rendering="geometricPrecision"/>
</svg>
